<?xml version="1.0" encoding="UTF-8" standalone="no"?>
<svg
   xmlns:dc="http://purl.org/dc/elements/1.1/"
   xmlns:cc="http://creativecommons.org/ns#"
   xmlns:rdf="http://www.w3.org/1999/02/22-rdf-syntax-ns#"
   xmlns:svg="http://www.w3.org/2000/svg"
   xmlns="http://www.w3.org/2000/svg"
   xmlns:sodipodi="http://sodipodi.sourceforge.net/DTD/sodipodi-0.dtd"
   xmlns:inkscape="http://www.inkscape.org/namespaces/inkscape"
   version="1.1"
   width="1000px"
   height="1000px"
   viewBox="0 0 1000 1000"
   id="svg5337"
   sodipodi:docname="untitled-6.svg"
   inkscape:version="0.92.4 (5da689c313, 2019-01-14)">
  <metadata
     id="metadata5343">
    <rdf:RDF>
      <cc:Work
         rdf:about="">
        <dc:format>image/svg+xml</dc:format>
        <dc:type
           rdf:resource="http://purl.org/dc/dcmitype/StillImage" />
        <dc:title></dc:title>
        <cc:license
           rdf:resource="http://creativecommons.org/licenses/by/4.0/" />
      </cc:Work>
      <cc:License
         rdf:about="http://creativecommons.org/licenses/by/4.0/">
        <cc:permits
           rdf:resource="http://creativecommons.org/ns#Reproduction" />
        <cc:permits
           rdf:resource="http://creativecommons.org/ns#Distribution" />
        <cc:requires
           rdf:resource="http://creativecommons.org/ns#Notice" />
        <cc:requires
           rdf:resource="http://creativecommons.org/ns#Attribution" />
        <cc:permits
           rdf:resource="http://creativecommons.org/ns#DerivativeWorks" />
      </cc:License>
    </rdf:RDF>
  </metadata>
  <defs
     id="defs5341" />
  <sodipodi:namedview
     pagecolor="#ffffff"
     bordercolor="#666666"
     borderopacity="1"
     objecttolerance="10"
     gridtolerance="10"
     guidetolerance="10"
     inkscape:pageopacity="0"
     inkscape:pageshadow="2"
     inkscape:window-width="1920"
     inkscape:window-height="1015"
     id="namedview5339"
     showgrid="false"
     inkscape:zoom="11.313709"
     inkscape:cx="563.94611"
     inkscape:cy="677.89993"
     inkscape:window-x="0"
     inkscape:window-y="0"
     inkscape:window-maximized="1"
     inkscape:current-layer="svg5337" />
  <style
     type="text/css"
     id="style4575">.mo {stroke:red;stroke-width:2} .va {stroke:blue;stroke-width:2} .fl {stroke:aqua;stroke-width:1} .bo {stroke:black;stroke-width:4}</style>
  <line
     class="va"
     x1="250.0"
     y1="812.5"
     x2="250.0"
     y2="937.5"
     id="line4577" />
  <line
     class="mo"
     x1="0.0"
     y1="687.5"
     x2="62.5"
     y2="687.5"
     id="line4579" />
  <line
     class="va"
     x1="187.5"
     y1="125.0"
     x2="250.0"
     y2="125.0"
     id="line4581" />
  <line
     class="mo"
     x1="562.5"
     y1="312.5"
     x2="562.5"
     y2="437.5"
     id="line4583"
     style="stroke:#ff0000;stroke-opacity:1" />
  <line
     class="fl"


   x1="312.5"
     y1="187.5"
     x2="375.0"
     y2="187.5"
     id="line4585"
     style="stroke:#ffff00;stroke-opacity:1" />
  <line
     class="fl"


   x1="250.0"
     y1="812.5"
     x2="312.5"
     y2="812.5"
     id="line4587"
     style="stroke:#ffff00;stroke-opacity:1" />
  <line
     class="fl"


   x1="687.5"
     y1="750.0"
     x2="687.5"
     y2="812.5"
     id="line4589"
     style="stroke:#ffff00;stroke-opacity:1" />
  <line
     class="fl"


   x1="812.5"
     y1="812.5"
     x2="812.5"
     y2="875.0"
     id="line4591"
     style="stroke:#ffff00;stroke-opacity:1" />
  <line
     class="va"
     x1="875.0"
     y1="187.5"
     x2="875.0"
     y2="250.0"
     id="line4593" />
  <line
     class="bo"
     x1="1000.0"
     y1="250.0"
     x2="1000.0"
     y2="312.5"
     id="line4595" />
  <line
     class="fl"


   x1="937.5"
     y1="875.0"
     x2="937.5"
     y2="937.5"
     id="line4597"
     style="stroke:#ffff00;stroke-opacity:1" />
  <line
     class="va"
     x1="62.5"
     y1="500.0"
     x2="187.5"
     y2="500.0"
     id="line4599" />
  <line
     class="mo"
     x1="187.5"
     y1="562.5"
     x2="312.5"
     y2="562.5"
     id="line4601" />
  <line
     class="fl"


   x1="500.0"
     y1="812.5"
     x2="562.5"
     y2="812.5"
     id="line4603"
     style="stroke:#ffff00;stroke-opacity:1" />
  <line
     class="mo"
     x1="812.5"
     y1="937.5"
     x2="812.5"
     y2="1000.0"
     id="line4605" />
  <line
     class="fl"


   x1="562.5"
     y1="187.5"
     x2="625.0"
     y2="187.5"
     id="line4607"
     style="stroke:#ffff00;stroke-opacity:1" />
  <line
     class="fl"


   x1="750.0"
     y1="937.5"
     x2="812.5"
     y2="937.5"
     id="line4609"
     style="stroke:#ffff00;stroke-opacity:1" />
  <line
     class="bo"
     x1="1000.0"
     y1="375.0"
     x2="1000.0"
     y2="437.5"
     id="line4611" />
  <line
     class="bo"
     x1="875.0"
     y1="1000.0"
     x2="937.5"
     y2="1000.0"
     id="line4613" />
  <line
     class="va"
     x1="937.5"
     y1="375.0"
     x2="1000.0"
     y2="375.0"
     id="line4615" />
  <line
     class="va"
     x1="62.5"
     y1="375.0"
     x2="187.5"
     y2="375.0"
     id="line4617" />
  <line
     class="mo"
     x1="187.5"
     y1="437.5"
     x2="312.5"
     y2="437.5"
     id="line4619" />
  <line
     class="mo"
     x1="312.5"
     y1="562.5"
     x2="375.0"
     y2="500.0"
     id="line4621" />
  <line
     class="fl"


   x1="437.5"
     y1="562.5"
     x2="562.5"
     y2="562.5"
     id="line4623"
     style="fill:#000001;fill-opacity:0.50196081;stroke:#ff0000;stroke-opacity:0.50196081" />
  <line
     class="va"
     x1="562.5"
     y1="625.0"
     x2="687.5"
     y2="625.0"
     id="line4625" />
  <line
     class="mo"
     x1="687.5"
     y1="687.5"
     x2="812.5"
     y2="687.5"
     id="line4627" />
  <line
     class="fl"


   x1="62.5"
     y1="562.5"
     x2="62.5"
     y2="625.0"
     id="line4629"
     style="stroke:#ffff00;stroke-opacity:1" />
  <line
     class="va"
     x1="812.5"
     y1="750.0"
     x2="937.5"
     y2="750.0"
     id="line4631" />
  <line
     class="fl"


   x1="187.5"
     y1="625.0"
     x2="187.5"
     y2="687.5"
     id="line4633"
     style="stroke:#ffff00;stroke-opacity:1" />
  <line
     class="mo"
     x1="0.0"
     y1="562.5"
     x2="62.5"
     y2="562.5"
     id="line4635" />
  <line
     class="va"
     x1="250.0"
     y1="0.0"
     x2="250.0"
     y2="62.5"
     id="line4637" />
  <line
     class="bo"
     x1="187.5"
     y1="0.0"
     x2="250.0"
     y2="0.0"
     id="line4639" />
  <line
     class="fl"


   x1="250.0"
     y1="687.5"
     x2="312.5"
     y2="687.5"
     id="line4641"
     style="stroke:#ffff00;stroke-opacity:1" />
  <line
     class="fl"


   x1="312.5"
     y1="62.5"
     x2="375.0"
     y2="62.5"
     id="line4643"
     style="stroke:#ffff00;stroke-opacity:1" />
  <line
     class="bo"
     x1="375.0"
     y1="1000.0"
     x2="437.5"
     y2="1000.0"
     id="line4645" />
  <line
     class="fl"


   x1="687.5"
     y1="625.0"
     x2="687.5"
     y2="687.5"
     id="line4647"
     style="stroke:#ffff00;stroke-opacity:1" />
  <line
     class="va"
     x1="437.5"
     y1="375.0"
     x2="500.0"
     y2="375.0"
     id="line4649" />
  <line
     class="va"
     x1="750.0"
     y1="0.0"
     x2="750.0"
     y2="62.5"
     id="line4651" />
  <line
     class="fl"


   x1="812.5"
     y1="687.5"
     x2="812.5"
     y2="750.0"
     id="line4653"
     style="stroke:#ffff00;stroke-opacity:1" />
  <line
     class="fl"


   x1="437.5"
     y1="437.5"
     x2="562.5"
     y2="437.5"
     id="line4655"
     style="fill:#000001;fill-opacity:0.50196081;stroke:#ff0000;stroke-opacity:0.50196081" />
  <line
     class="va"
     x1="562.5"
     y1="562.5"
     x2="625.0"
     y2="500.0"
     id="line4657" />
  <line
     class="bo"
     x1="1000.0"
     y1="125.0"
     x2="1000.0"
     y2="187.5"
     id="line4659" />
  <line
     class="fl"


   x1="937.5"
     y1="750.0"
     x2="937.5"
     y2="812.5"
     id="line4661"
     style="stroke:#ffff00;stroke-opacity:1" />
  <line
     class="fl"


   x1="562.5"
     y1="437.5"
     x2="625.0"
     y2="437.5"
     id="line4663"
     style="stroke:#ffff00;stroke-opacity:1" />
  <line
     class="mo"
     x1="687.5"
     y1="562.5"
     x2="812.5"
     y2="562.5"
     id="line4665" />
  <line
     class="va"
     x1="812.5"
     y1="625.0"
     x2="937.5"
     y2="625.0"
     id="line4667" />
  <line
     class="va"
     x1="937.5"
     y1="625.0"
     x2="1000.0"
     y2="625.0"
     id="line4669" />
  <line
     class="fl"


   x1="62.5"
     y1="312.5"
     x2="62.5"
     y2="375.0"
     id="line4671"
     style="stroke:#ffff00;stroke-opacity:1" />
  <line
     class="bo"
     x1="0.0"
     y1="937.5"
     x2="0.0"
     y2="1000.0"
     id="line4673" />
  <line
     class="fl"


   x1="187.5"
     y1="375.0"
     x2="187.5"
     y2="437.5"
     id="line4675"
     style="stroke:#ffff00;stroke-opacity:1" />
  <line
     class="fl"


   x1="312.5"
     y1="437.5"
     x2="312.5"
     y2="500.0"
     id="line4677"
     style="stroke:#ffff00;stroke-opacity:1" />
  <line
     class="mo"
     x1="0.0"
     y1="812.5"
     x2="62.5"
     y2="812.5"
     id="line4679" />
  <line
     class="fl"


   x1="562.5"
     y1="562.5"
     x2="562.5"
     y2="625.0"
     id="line4681"
     style="stroke:#ffff00;stroke-opacity:1" />
  <line
     class="fl"


   x1="250.0"
     y1="937.5"
     x2="312.5"
     y2="937.5"
     id="line4683"
     style="stroke:#ffff00;stroke-opacity:1" />
  <line
     class="mo"
     x1="625.0"
     y1="750.0"
     x2="687.5"
     y2="812.5"
     id="line4685" />
  <line
     class="fl"


   x1="62.5"
     y1="437.5"
     x2="62.5"
     y2="500.0"
     id="line4687"
     style="stroke:#ffff00;stroke-opacity:1" />
  <line
     class="fl"


   x1="187.5"
     y1="500.0"
     x2="187.5"
     y2="562.5"
     id="line4689"
     style="stroke:#ffff00;stroke-opacity:1" />
  <line
     class="va"
     x1="500.0"
     y1="0.0"
     x2="500.0"
     y2="62.5"
     id="line4691" />
  <line
     class="fl"


   x1="562.5"
     y1="312.5"
     x2="625.0"
     y2="312.5"
     id="line4693"
     style="stroke:#ffff00;stroke-opacity:1" />
  <line
     class="fl"


   x1="500.0"
     y1="937.5"
     x2="562.5"
     y2="937.5"
     id="line4695"
     style="stroke:#ffff00;stroke-opacity:1" />
  <line
     class="bo"
     x1="625.0"
     y1="1000.0"
     x2="687.5"
     y2="1000.0"
     id="line4697" />
  <line
     class="va"
     x1="937.5"
     y1="500.0"
     x2="1000.0"
     y2="500.0"
     id="line4699" />
  <line
     class="va"
     x1="62.5"
     y1="250.0"
     x2="187.5"
     y2="250.0"
     id="line4701" />
  <line
     class="fl"


   x1="562.5"
     y1="437.5"
     x2="562.5"
     y2="562.5"
     id="line4703"
     style="stroke:#ff0000;stroke-opacity:0.50196081" />
  <line
     class="mo"
     x1="187.5"
     y1="312.5"
     x2="312.5"
     y2="312.5"
     id="line4705" />
  <line
     class="va"
     x1="312.5"
     y1="375.0"
     x2="437.5"
     y2="375.0"
     id="line4707" />
  <line
     class="bo"
     x1="687.5"
     y1="0.0"
     x2="750.0"
     y2="0.0"
     id="line4709" />
  <line
     class="va"
     x1="625.0"
     y1="437.5"
     x2="625.0"
     y2="500.0"
     id="line4711" />
  <line
     class="fl"


   x1="812.5"
     y1="62.5"
     x2="875.0"
     y2="62.5"
     id="line4713"
     style="stroke:#ffff00;stroke-opacity:1" />
  <line
     class="bo"
     x1="1000.0"
     y1="625.0"
     x2="1000.0"
     y2="687.5"
     id="line4715" />
  <line
     class="bo"
     x1="0.0"
     y1="125.0"
     x2="0.0"
     y2="187.5"
     id="line4717" />
  <line
     class="mo"
     x1="0.0"
     y1="312.5"
     x2="62.5"
     y2="312.5"
     id="line4719" />
  <line
     class="bo"
     x1="62.5"
     y1="1000.0"
     x2="125.0"
     y2="1000.0"
     id="line4721" />
  <line
     class="mo"
     x1="312.5"
     y1="937.5"
     x2="312.5"
     y2="1000.0"
     id="line4723" />
  <line
     class="bo"
     x1="0.0"
     y1="250.0"
     x2="0.0"
     y2="312.5"
     id="line4725" />
  <line
     class="mo"
     x1="62.5"
     y1="937.5"
     x2="62.5"
     y2="1000.0"
     id="line4727" />
  <line
     class="va"
     x1="625.0"
     y1="500.0"
     x2="687.5"
     y2="500.0"
     id="line4729" />
  <line
     class="bo"
     x1="937.5"
     y1="0.0"
     x2="1000.0"
     y2="0.0"
     id="line4731" />
  <line
     class="mo"
     x1="312.5"
     y1="187.5"
     x2="375.0"
     y2="250.0"
     id="line4733" />
  <line
     class="mo"
     x1="62.5"
     y1="812.5"
     x2="125.0"
     y2="750.0"
     id="line4735" />
  <line
     class="mo"
     x1="812.5"
     y1="62.5"
     x2="812.5"
     y2="187.5"
     id="line4737" />
  <line
     class="bo"
     x1="0.0"
     y1="0.0"
     x2="0.0"
     y2="62.5"
     id="line4739" />
  <line
     class="fl"


   x1="62.5"
     y1="687.5"
     x2="62.5"
     y2="750.0"
     id="line4741"
     style="stroke:#ffff00;stroke-opacity:1" />
  <line
     class="va"
     x1="375.0"
     y1="187.5"
     x2="375.0"
     y2="250.0"
     id="line4743" />
  <line
     class="va"
     x1="62.5"
     y1="625.0"
     x2="187.5"
     y2="625.0"
     id="line4745" />
  <line
     class="fl"


   x1="500.0"
     y1="687.5"
     x2="562.5"
     y2="687.5"
     id="line4747"
     style="stroke:#ffff00;stroke-opacity:1" />
  <line
     class="fl"


   x1="562.5"
     y1="62.5"
     x2="625.0"
     y2="62.5"
     id="line4749"
     style="stroke:#ffff00;stroke-opacity:1" />
  <line
     class="va"
     x1="625.0"
     y1="750.0"
     x2="687.5"
     y2="750.0"
     id="line4751" />
  <line
     class="fl"


   x1="812.5"
     y1="187.5"
     x2="875.0"
     y2="187.5"
     id="line4753"
     style="stroke:#ffff00;stroke-opacity:1" />
  <line
     class="va"
     x1="937.5"
     y1="250.0"
     x2="1000.0"
     y2="250.0"
     id="line4755" />
  <line
     class="va"
     x1="250.0"
     y1="687.5"
     x2="250.0"
     y2="812.5"
     id="line4757" />
  <line
     class="mo"
     x1="750.0"
     y1="375.0"
     x2="812.5"
     y2="312.5"
     id="line4759" />
  <line
     class="mo"
     x1="312.5"
     y1="62.5"
     x2="312.5"
     y2="187.5"
     id="line4761" />
  <line
     class="va"
     x1="500.0"
     y1="812.5"
     x2="500.0"
     y2="937.5"
     id="line4763" />
  <line
     class="mo"
     x1="562.5"
     y1="187.5"
     x2="562.5"
     y2="312.5"
     id="line4765" />
  <line
     class="mo"
     x1="687.5"
     y1="812.5"
     x2="812.5"
     y2="812.5"
     id="line4767" />
  <line
     class="va"
     x1="812.5"
     y1="875.0"
     x2="937.5"
     y2="875.0"
     id="line4769" />
  <line
     class="mo"
     x1="0.0"
     y1="437.5"
     x2="62.5"
     y2="437.5"
     id="line4771" />
  <line
     class="va"
     x1="500.0"
     y1="687.5"
     x2="500.0"
     y2="812.5"
     id="line4773" />
  <line
     class="mo"
     x1="562.5"
     y1="62.5"
     x2="562.5"
     y2="187.5"
     id="line4775" />
  <line
     class="bo"
     x1="437.5"
     y1="0.0"
     x2="500.0"
     y2="0.0"
     id="line4777" />
  <line
     class="mo"
     x1="812.5"
     y1="187.5"
     x2="812.5"
     y2="312.5"
     id="line4779" />
  <line
     class="mo"
     x1="562.5"
     y1="937.5"
     x2="562.5"
     y2="1000.0"
     id="line4781" />
  <line
     class="bo"
     x1="1000.0"
     y1="500.0"
     x2="1000.0"
     y2="562.5"
     id="line4783" />
  <line
     class="fl"


   x1="937.5"
     y1="250.0"
     x2="937.5"
     y2="312.5"
     id="line4785"
     style="stroke:#ffff00;stroke-opacity:1" />
  <line
     class="va"
     x1="625.0"
     y1="312.5"
     x2="625.0"
     y2="437.5"
     id="line4787" />
  <line
     class="bo"
     x1="1000.0"
     y1="937.5"
     x2="1000.0"
     y2="1000.0"
     id="line4789" />
  <line
     class="fl"


   x1="375.0"
     y1="187.5"
     x2="437.5"
     y2="187.5"
     id="line4791"
     style="stroke:#ffff00;stroke-opacity:1" />
  <line
     class="fl"


   x1="312.5"
     y1="812.5"
     x2="375.0"
     y2="812.5"
     id="line4793"
     style="stroke:#ffff00;stroke-opacity:1" />
  <line
     class="fl"


   x1="562.5"
     y1="937.5"
     x2="625.0"
     y2="937.5"
     id="line4795"
     style="stroke:#ffff00;stroke-opacity:1" />
  <line
     class="bo"
     x1="687.5"
     y1="1000.0"
     x2="750.0"
     y2="1000.0"
     id="line4797" />
  <line
     class="fl"


   x1="625.0"
     y1="312.5"
     x2="687.5"
     y2="312.5"
     id="line4799"
     style="stroke:#ffff00;stroke-opacity:1" />
  <line
     class="va"
     x1="750.0"
     y1="375.0"
     x2="812.5"
     y2="375.0"
     id="line4801" />
  <line
     class="bo"
     x1="0.0"
     y1="437.5"
     x2="0.0"
     y2="500.0"
     id="line4803" />
  <line
     class="mo"
     x1="437.5"
     y1="0.0"
     x2="437.5"
     y2="62.5"
     id="line4805" />
  <line
     class="bo"
     x1="0.0"
     y1="0.0"
     x2="62.5"
     y2="0.0"
     id="line4807" />
  <line
     class="va"
     x1="625.0"
     y1="750.0"
     x2="625.0"
     y2="812.5"
     id="line4809" />
  <line
     class="bo"
     x1="0.0"
     y1="562.5"
     x2="0.0"
     y2="625.0"
     id="line4811" />
  <line
     class="mo"
     x1="187.5"
     y1="0.0"
     x2="187.5"
     y2="62.5"
     id="line4813" />
  <line
     class="fl"


   x1="812.5"
     y1="312.5"
     x2="812.5"
     y2="375.0"
     id="line4815"
     style="stroke:#ffff00;stroke-opacity:1" />
  <line
     class="va"
     x1="750.0"
     y1="937.5"
     x2="750.0"
     y2="1000.0"
     id="line4817" />
  <line
     class="bo"
     x1="250.0"
     y1="0.0"
     x2="312.5"
     y2="0.0"
     id="line4819" />
  <line
     class="va"
     x1="187.5"
     y1="625.0"
     x2="250.0"
     y2="625.0"
     id="line4821" />
  <line
     class="fl"


   x1="312.5"
     y1="687.5"
     x2="375.0"
     y2="687.5"
     id="line4823"
     style="stroke:#ffff00;stroke-opacity:1" />
  <line
     class="fl"


   x1="375.0"
     y1="62.5"
     x2="437.5"
     y2="62.5"
     id="line4825"
     style="stroke:#ffff00;stroke-opacity:1" />
  <line
     class="fl"


   x1="625.0"
     y1="187.5"
     x2="687.5"
     y2="187.5"
     id="line4827"
     style="stroke:#ffff00;stroke-opacity:1" />
  <line
     class="fl"


   x1="562.5"
     y1="812.5"
     x2="625.0"
     y2="812.5"
     id="line4829"
     style="stroke:#ffff00;stroke-opacity:1" />
  <line
     class="bo"
     x1="937.5"
     y1="1000.0"
     x2="1000.0"
     y2="1000.0"
     id="line4831" />
  <line
     class="mo"
     x1="312.5"
     y1="812.5"
     x2="312.5"
     y2="937.5"
     id="line4833" />
  <line
     class="bo"
     x1="0.0"
     y1="312.5"
     x2="0.0"
     y2="375.0"
     id="line4835" />
  <line
     class="va"
     x1="375.0"
     y1="500.0"
     x2="375.0"
     y2="562.5"
     id="line4837" />
  <line
     class="mo"
     x1="687.5"
     y1="0.0"
     x2="687.5"
     y2="62.5"
     id="line4839" />
  <line
     class="va"
     x1="375.0"
     y1="500.0"
     x2="437.5"
     y2="437.5"
     id="line4841" />
  <line
     class="fl"


   x1="312.5"
     y1="937.5"
     x2="375.0"
     y2="937.5"
     id="line4843"
     style="stroke:#ffff00;stroke-opacity:1" />
  <line
     class="bo"
     x1="437.5"
     y1="1000.0"
     x2="500.0"
     y2="1000.0"
     id="line4845" />
  <line
     class="va"
     x1="562.5"
     y1="687.5"
     x2="625.0"
     y2="750.0"
     id="line4847" />
  <line
     class="fl"


   x1="625.0"
     y1="437.5"
     x2="687.5"
     y2="437.5"
     id="line4849"
     style="stroke:#ffff00;stroke-opacity:1" />
  <line
     class="mo"
     x1="625.0"
     y1="500.0"
     x2="687.5"
     y2="437.5"
     id="line4851" />
  <line
     class="mo"
     x1="62.5"
     y1="812.5"
     x2="62.5"
     y2="937.5"
     id="line4853" />
  <line
     class="va"
     x1="0.0"
     y1="125.0"
     x2="62.5"
     y2="125.0"
     id="line4855" />
  <line
     class="fl"


   x1="62.5"
     y1="812.5"
     x2="125.0"
     y2="812.5"
     id="line4857"
     style="stroke:#ffff00;stroke-opacity:1" />
  <line
     class="bo"
     x1="1000.0"
     y1="812.5"
     x2="1000.0"
     y2="875.0"
     id="line4859" />
  <line
     class="bo"
     x1="0.0"
     y1="812.5"
     x2="0.0"
     y2="875.0"
     id="line4861" />
  <line
     class="fl"


   x1="62.5"
     y1="187.5"
     x2="62.5"
     y2="250.0"
     id="line4863"
     style="stroke:#ffff00;stroke-opacity:1" />
  <line
     class="fl"


   x1="187.5"
     y1="250.0"
     x2="187.5"
     y2="312.5"
     id="line4865"
     style="stroke:#ffff00;stroke-opacity:1" />
  <line
     class="fl"


   x1="312.5"
     y1="312.5"
     x2="312.5"
     y2="375.0"
     id="line4867"
     style="stroke:#ffff00;stroke-opacity:1" />
  <line
     class="va"
     x1="250.0"
     y1="937.5"
     x2="250.0"
     y2="1000.0"
     id="line4869" />
  <line
     class="va"
     x1="812.5"
     y1="937.5"
     x2="875.0"
     y2="1000.0"
     id="line4871" />
  <line
     class="fl"


   x1="437.5"
     y1="375.0"
     x2="437.5"
     y2="437.5"
     id="line4873"
     style="stroke:#ffff00;stroke-opacity:1" />
  <line
     class="va"
     x1="62.5"
     y1="125.0"
     x2="187.5"
     y2="125.0"
     id="line4875" />
  <line
     class="mo"
     x1="187.5"
     y1="187.5"
     x2="312.5"
     y2="187.5"
     id="line4877" />
  <line
     class="fl"


   x1="687.5"
     y1="500.0"
     x2="687.5"
     y2="562.5"
     id="line4879"
     style="stroke:#ffff00;stroke-opacity:1" />
  <line
     class="mo"
     x1="687.5"
     y1="437.5"
     x2="812.5"
     y2="437.5"
     id="line4881" />
  <line
     class="bo"
     x1="750.0"
     y1="0.0"
     x2="812.5"
     y2="0.0"
     id="line4883" />
  <line
     class="va"
     x1="812.5"
     y1="500.0"
     x2="937.5"
     y2="500.0"
     id="line4885" />
  <line
     class="fl"


   x1="875.0"
     y1="62.5"
     x2="937.5"
     y2="62.5"
     id="line4887"
     style="stroke:#ffff00;stroke-opacity:1" />
  <line
     class="va"
     x1="937.5"
     y1="750.0"
     x2="1000.0"
     y2="750.0"
     id="line4889" />
  <line
     class="mo"
     x1="312.5"
     y1="562.5"
     x2="312.5"
     y2="687.5"
     id="line4891" />
  <line
     class="mo"
     x1="562.5"
     y1="687.5"
     x2="562.5"
     y2="812.5"
     id="line4893" />
  <line
     class="va"
     x1="812.5"
     y1="375.0"
     x2="937.5"
     y2="375.0"
     id="line4895" />
  <line
     class="fl"


   x1="0.0"
     y1="937.5"
     x2="62.5"
     y2="937.5"
     id="line4897"
     style="stroke:#ffff00;stroke-opacity:1" />
  <line
     class="bo"
     x1="125.0"
     y1="1000.0"
     x2="187.5"
     y2="1000.0"
     id="line4899" />
  <line
     class="fl"


   x1="812.5"
     y1="562.5"
     x2="812.5"
     y2="625.0"
     id="line4901"
     style="stroke:#ffff00;stroke-opacity:1" />
  <line
     class="va"
     x1="250.0"
     y1="125.0"
     x2="312.5"
     y2="187.5"
     id="line4903" />
  <line
     class="fl"


   x1="937.5"
     y1="625.0"
     x2="937.5"
     y2="687.5"
     id="line4905"
     style="stroke:#ffff00;stroke-opacity:1" />
  <line
     class="va"
     x1="875.0"
     y1="62.5"
     x2="875.0"
     y2="187.5"
     id="line4907" />
  <line
     class="bo"
     x1="1000.0"
     y1="0.0"
     x2="1000.0"
     y2="62.5"
     id="line4909" />
  <line
     class="mo"
     x1="312.5"
     y1="687.5"
     x2="312.5"
     y2="812.5"
     id="line4911"
     style="stroke:#ff0000;stroke-opacity:1" />
  <line
     class="va"
     x1="375.0"
     y1="62.5"
     x2="375.0"
     y2="187.5"
     id="line4913" />
  <line
     class="fl"


   x1="937.5"
     y1="375.0"
     x2="937.5"
     y2="437.5"
     id="line4915"
     style="stroke:#ffff00;stroke-opacity:1" />
  <line
     class="va"
     x1="625.0"
     y1="187.5"
     x2="625.0"
     y2="312.5"
     id="line4917" />
  <line
     class="mo"
     x1="562.5"
     y1="812.5"
     x2="562.5"
     y2="937.5"
     id="line4919" />
  <line
     class="va"
     x1="125.0"
     y1="750.0"
     x2="187.5"
     y2="687.5"
     id="line4921" />
  <line
     class="fl"


   x1="812.5"
     y1="437.5"
     x2="812.5"
     y2="500.0"
     id="line4923"
     style="stroke:#ffff00;stroke-opacity:1" />
  <line
     class="fl"


   x1="312.5"
     y1="562.5"
     x2="375.0"
     y2="562.5"
     id="line4925"
     style="stroke:#ffff00;stroke-opacity:1" />
  <line
     class="va"
     x1="625.0"
     y1="62.5"
     x2="625.0"
     y2="187.5"
     id="line4927" />
  <line
     class="fl"


   x1="937.5"
     y1="500.0"
     x2="937.5"
     y2="562.5"
     id="line4929"
     style="stroke:#ffff00;stroke-opacity:1" />
  <line
     class="bo"
     x1="500.0"
     y1="0.0"
     x2="562.5"
     y2="0.0"
     id="line4931" />
  <line
     class="va"
     x1="500.0"
     y1="375.0"
     x2="562.5"
     y2="437.5"
     id="line4933" />
  <line
     class="fl"


   x1="625.0"
     y1="62.5"
     x2="687.5"
     y2="62.5"
     id="line4935"
     style="stroke:#ffff00;stroke-opacity:1" />
  <line
     class="va"
     x1="937.5"
     y1="875.0"
     x2="1000.0"
     y2="875.0"
     id="line4937" />
  <line
     class="fl"


   x1="875.0"
     y1="187.5"
     x2="937.5"
     y2="187.5"
     id="line4939"
     style="stroke:#ffff00;stroke-opacity:1" />
  <line
     class="bo"
     x1="0.0"
     y1="687.5"
     x2="0.0"
     y2="750.0"
     id="line4941" />
  <line
     class="va"
     x1="812.5"
     y1="312.5"
     x2="875.0"
     y2="250.0"
     id="line4943" />
  <line
     class="fl"


   x1="62.5"
     y1="62.5"
     x2="62.5"
     y2="125.0"
     id="line4945"
     style="stroke:#ffff00;stroke-opacity:1" />
  <line
     class="va"
     x1="125.0"
     y1="750.0"
     x2="125.0"
     y2="812.5"
     id="line4947" />
  <line
     class="fl"


   x1="187.5"
     y1="125.0"
     x2="187.5"
     y2="187.5"
     id="line4949"
     style="stroke:#ffff00;stroke-opacity:1" />
  <line
     class="fl"


   x1="312.5"
     y1="187.5"
     x2="312.5"
     y2="250.0"
     id="line4951"
     style="stroke:#ffff00;stroke-opacity:1" />
  <line
     class="va"
     x1="500.0"
     y1="937.5"
     x2="500.0"
     y2="1000.0"
     id="line4953" />
  <line
     class="mo"
     x1="937.5"
     y1="437.5"
     x2="1000.0"
     y2="437.5"
     id="line4955" />
  <line
     class="fl"


   x1="187.5"
     y1="562.5"
     x2="187.5"
     y2="625.0"
     id="line4957"
     style="stroke:#ffff00;stroke-opacity:1" />
  <line
     class="va"
     x1="375.0"
     y1="0.0"
     x2="375.0"
     y2="62.5"
     id="line4959" />
  <line
     class="mo"
     x1="62.5"
     y1="437.5"
     x2="187.5"
     y2="437.5"
     id="line4961" />
  <line
     class="va"
     x1="187.5"
     y1="500.0"
     x2="312.5"
     y2="500.0"
     id="line4963" />
  <line
     class="fl"


   x1="812.5"
     y1="875.0"
     x2="812.5"
     y2="937.5"
     id="line4965"
     style="stroke:#ffff00;stroke-opacity:1" />
  <line
     class="mo"
     x1="562.5"
     y1="687.5"
     x2="687.5"
     y2="687.5"
     id="line4967" />
  <line
     class="fl"


   x1="937.5"
     y1="937.5"
     x2="937.5"
     y2="1000.0"
     id="line4969"
     style="stroke:#ffff00;stroke-opacity:1" />
  <line
     class="bo"
     x1="1000.0"
     y1="312.5"
     x2="1000.0"
     y2="375.0"
     id="line4971" />
  <line
     class="va"
     x1="687.5"
     y1="750.0"
     x2="812.5"
     y2="750.0"
     id="line4973" />
  <line
     class="mo"
     x1="812.5"
     y1="812.5"
     x2="937.5"
     y2="812.5"
     id="line4975" />
  <line
     class="va"
     x1="0.0"
     y1="625.0"
     x2="62.5"
     y2="625.0"
     id="line4977" />
  <line
     class="mo"
     x1="875.0"
     y1="250.0"
     x2="937.5"
     y2="187.5"
     id="line4979" />
  <line
     class="bo"
     x1="62.5"
     y1="0.0"
     x2="125.0"
     y2="0.0"
     id="line4981" />
  <line
     class="fl"


   x1="187.5"
     y1="62.5"
     x2="250.0"
     y2="62.5"
     id="line4983"
     style="stroke:#ffff00;stroke-opacity:1" />
  <line
     class="fl"


   x1="437.5"
     y1="187.5"
     x2="500.0"
     y2="187.5"
     id="line4985"
     style="stroke:#ffff00;stroke-opacity:1" />
  <line
     class="fl"


   x1="375.0"
     y1="812.5"
     x2="437.5"
     y2="812.5"
     id="line4987"
     style="stroke:#ffff00;stroke-opacity:1" />
  <line
     class="fl"


   x1="687.5"
     y1="312.5"
     x2="750.0"
     y2="312.5"
     id="line4989"
     style="stroke:#ffff00;stroke-opacity:1" />
  <line
     class="fl"


   x1="625.0"
     y1="937.5"
     x2="687.5"
     y2="937.5"
     id="line4991"
     style="stroke:#ffff00;stroke-opacity:1" />
  <line
     class="bo"
     x1="750.0"
     y1="1000.0"
     x2="812.5"
     y2="1000.0"
     id="line4993" />
  <line
     class="fl"


   x1="62.5"
     y1="500.0"
     x2="62.5"
     y2="562.5"
     id="line4995"
     style="stroke:#ffff00;stroke-opacity:1" />
  <line
     class="va"
     x1="125.0"
     y1="812.5"
     x2="125.0"
     y2="937.5"
     id="line4997" />
  <line
     class="mo"
     x1="812.5"
     y1="687.5"
     x2="937.5"
     y2="687.5"
     id="line4999" />
  <line
     class="fl"


   x1="62.5"
     y1="625.0"
     x2="62.5"
     y2="687.5"
     id="line5001"
     style="stroke:#ffff00;stroke-opacity:1" />
  <line
     class="mo"
     x1="937.5"
     y1="312.5"
     x2="1000.0"
     y2="312.5"
     id="line5003" />
  <line
     class="va"
     x1="375.0"
     y1="812.5"
     x2="375.0"
     y2="937.5"
     id="line5005" />
  <line
     class="mo"
     x1="437.5"
     y1="187.5"
     x2="437.5"
     y2="312.5"
     id="line5007" />
  <line
     class="mo"
     x1="687.5"
     y1="312.5"
     x2="687.5"
     y2="437.5"
     id="line5009" />
  <line
     class="mo"
     x1="500.0"
     y1="625.0"
     x2="562.5"
     y2="687.5"
     id="line5011" />
  <line
     class="fl"


   x1="62.5"
     y1="375.0"
     x2="62.5"
     y2="437.5"
     id="line5013"
     style="stroke:#ffff00;stroke-opacity:1" />
  <line
     class="mo"
     x1="937.5"
     y1="562.5"
     x2="1000.0"
     y2="562.5"
     id="line5015" />
  <line
     class="mo"
     x1="62.5"
     y1="312.5"
     x2="187.5"
     y2="312.5"
     id="line5017" />
  <line
     class="fl"


   x1="437.5"
     y1="437.5"
     x2="437.5"
     y2="562.5"
     id="line5019"
     style="fill:#000001;fill-opacity:0.50196081;stroke:#ff0000;stroke-opacity:0.50196081" />
  <line
     class="va"
     x1="187.5"
     y1="375.0"
     x2="312.5"
     y2="375.0"
     id="line5021" />
  <line
     class="mo"
     x1="312.5"
     y1="437.5"
     x2="437.5"
     y2="437.5"
     id="line5023" />
  <line
     class="mo"
     x1="562.5"
     y1="562.5"
     x2="687.5"
     y2="562.5"
     id="line5025" />
  <line
     class="va"
     x1="687.5"
     y1="625.0"
     x2="812.5"
     y2="625.0"
     id="line5027" />
  <line
     class="va"
     x1="0.0"
     y1="875.0"
     x2="62.5"
     y2="812.5"
     id="line5029" />
  <line
     class="va"
     x1="0.0"
     y1="750.0"
     x2="62.5"
     y2="750.0"
     id="line5031" />
  <line
     class="mo"
     x1="62.5"
     y1="187.5"
     x2="187.5"
     y2="187.5"
     id="line5033" />
  <line
     class="va"
     x1="187.5"
     y1="250.0"
     x2="312.5"
     y2="250.0"
     id="line5035" />
  <line
     class="fl"


   x1="125.0"
     y1="812.5"
     x2="187.5"
     y2="812.5"
     id="line5037"
     style="stroke:#ffff00;stroke-opacity:1" />
  <line
     class="mo"
     x1="312.5"
     y1="312.5"
     x2="437.5"
     y2="312.5"
     id="line5039" />
  <line
     class="va"
     x1="312.5"
     y1="250.0"
     x2="375.0"
     y2="250.0"
     id="line5041" />
  <line
     class="fl"


   x1="437.5"
     y1="312.5"
     x2="500.0"
     y2="312.5"
     id="line5043"
     style="stroke:#ffff00;stroke-opacity:1" />
  <line
     class="fl"


   x1="375.0"
     y1="937.5"
     x2="437.5"
     y2="937.5"
     id="line5045"
     style="stroke:#ffff00;stroke-opacity:1" />
  <line
     class="bo"
     x1="500.0"
     y1="1000.0"
     x2="562.5"
     y2="1000.0"
     id="line5047" />
  <line
     class="va"
     x1="687.5"
     y1="500.0"
     x2="812.5"
     y2="500.0"
     id="line5049" />
  <line
     class="mo"
     x1="812.5"
     y1="562.5"
     x2="937.5"
     y2="562.5"
     id="line5051" />
  <line
     class="fl"


   x1="187.5"
     y1="437.5"
     x2="187.5"
     y2="500.0"
     id="line5053"
     style="stroke:#ffff00;stroke-opacity:1" />
  <line
     class="fl"


   x1="312.5"
     y1="500.0"
     x2="312.5"
     y2="562.5"
     id="line5055"
     style="stroke:#ffff00;stroke-opacity:1" />
  <line
     class="fl"


   x1="562.5"
     y1="625.0"
     x2="562.5"
     y2="687.5"
     id="line5057"
     style="stroke:#ffff00;stroke-opacity:1" />
  <line
     class="va"
     x1="625.0"
     y1="0.0"
     x2="625.0"
     y2="62.5"
     id="line5059" />
  <line
     class="fl"


   x1="687.5"
     y1="687.5"
     x2="687.5"
     y2="750.0"
     id="line5061"
     style="stroke:#ffff00;stroke-opacity:1" />
  <line
     class="fl"


   x1="812.5"
     y1="750.0"
     x2="812.5"
     y2="812.5"
     id="line5063"
     style="stroke:#ffff00;stroke-opacity:1" />
  <line
     class="bo"
     x1="1000.0"
     y1="187.5"
     x2="1000.0"
     y2="250.0"
     id="line5065" />
  <line
     class="fl"


   x1="937.5"
     y1="812.5"
     x2="937.5"
     y2="875.0"
     id="line5067"
     style="stroke:#ffff00;stroke-opacity:1" />
  <line
     class="mo"
     x1="750.0"
     y1="875.0"
     x2="812.5"
     y2="937.5"
     id="line5069" />
  <line
     class="va"
     x1="375.0"
     y1="562.5"
     x2="375.0"
     y2="687.5"
     id="line5071" />
  <line
     class="mo"
     x1="687.5"
     y1="62.5"
     x2="687.5"
     y2="187.5"
     id="line5073" />
  <line
     class="bo"
     x1="1000.0"
     y1="687.5"
     x2="1000.0"
     y2="750.0"
     id="line5075" />
  <line
     class="fl"


   x1="62.5"
     y1="937.5"
     x2="125.0"
     y2="937.5"
     id="line5077"
     style="stroke:#ffff00;stroke-opacity:1" />
  <line
     class="bo"
     x1="187.5"
     y1="1000.0"
     x2="250.0"
     y2="1000.0"
     id="line5079" />
  <line
     class="mo"
     x1="187.5"
     y1="62.5"
     x2="250.0"
     y2="125.0"
     id="line5081" />
  <line
     class="mo"
     x1="62.5"
     y1="687.5"
     x2="187.5"
     y2="687.5"
     id="line5083" />
  <line
     class="mo"
     x1="937.5"
     y1="62.5"
     x2="937.5"
     y2="187.5"
     id="line5085" />
  <line
     class="bo"
     x1="812.5"
     y1="0.0"
     x2="875.0"
     y2="0.0"
     id="line5087" />
  <line
     class="fl"


   x1="937.5"
     y1="62.5"
     x2="1000.0"
     y2="62.5"
     id="line5089"
     style="stroke:#ffff00;stroke-opacity:1" />
  <line
     class="bo"
     x1="0.0"
     y1="187.5"
     x2="0.0"
     y2="250.0"
     id="line5091" />
  <line
     class="mo"
     x1="187.5"
     y1="937.5"
     x2="187.5"
     y2="1000.0"
     id="line5093" />
  <line
     class="va"
     x1="0.0"
     y1="250.0"
     x2="62.5"
     y2="250.0"
     id="line5095" />
  <line
     class="mo"
     x1="937.5"
     y1="0.0"
     x2="937.5"
     y2="62.5"
     id="line5097" />
  <line
     class="va"
     x1="0.0"
     y1="500.0"
     x2="62.5"
     y2="500.0"
     id="line5099" />
  <line
     class="va"
     x1="375.0"
     y1="687.5"
     x2="375.0"
     y2="812.5"
     id="line5101" />
  <line
     class="mo"
     x1="437.5"
     y1="62.5"
     x2="437.5"
     y2="187.5"
     id="line5103" />
  <line
     class="mo"
     x1="812.5"
     y1="937.5"
     x2="937.5"
     y2="937.5"
     id="line5105" />
  <line
     class="bo"
     x1="312.5"
     y1="0.0"
     x2="375.0"
     y2="0.0"
     id="line5107" />
  <line
     class="mo"
     x1="687.5"
     y1="187.5"
     x2="687.5"
     y2="312.5"
     id="line5109" />
  <line
     class="va"
     x1="625.0"
     y1="812.5"
     x2="625.0"
     y2="937.5"
     id="line5111" />
  <line
     class="fl"


   x1="375.0"
     y1="687.5"
     x2="437.5"
     y2="687.5"
     id="line5113"
     style="stroke:#ffff00;stroke-opacity:1" />
  <line
     class="fl"


   x1="437.5"
     y1="62.5"
     x2="500.0"
     y2="62.5"
     id="line5115"
     style="stroke:#ffff00;stroke-opacity:1" />
  <line
     class="fl"


   x1="625.0"
     y1="812.5"
     x2="687.5"
     y2="812.5"
     id="line5117"
     style="stroke:#ffff00;stroke-opacity:1" />
  <line
     class="va"
     x1="750.0"
     y1="875.0"
     x2="812.5"
     y2="875.0"
     id="line5119" />
  <line
     class="fl"


   x1="687.5"
     y1="187.5"
     x2="750.0"
     y2="187.5"
     id="line5121"
     style="stroke:#ffff00;stroke-opacity:1" />
  <line
     class="va"
     x1="250.0"
     y1="62.5"
     x2="250.0"
     y2="125.0"
     id="line5123" />
  <line
     class="mo"
     x1="437.5"
     y1="312.5"
     x2="500.0"
     y2="375.0"
     id="line5125" />
  <line
     class="va"
     x1="750.0"
     y1="312.5"
     x2="750.0"
     y2="375.0"
     id="line5127" />
  <line
     class="mo"
     x1="687.5"
     y1="937.5"
     x2="687.5"
     y2="1000.0"
     id="line5129" />
  <line
     class="bo"
     x1="1000.0"
     y1="437.5"
     x2="1000.0"
     y2="500.0"
     id="line5131" />
  <line
     class="fl"


   x1="62.5"
     y1="750.0"
     x2="62.5"
     y2="812.5"
     id="line5133"
     style="stroke:#ffff00;stroke-opacity:1" />
  <line
     class="va"
     x1="500.0"
     y1="312.5"
     x2="500.0"
     y2="375.0"
     id="line5135" />
  <line
     class="mo"
     x1="437.5"
     y1="937.5"
     x2="437.5"
     y2="1000.0"
     id="line5137" />
  <line
     class="bo"
     x1="1000.0"
     y1="562.5"
     x2="1000.0"
     y2="625.0"
     id="line5139" />
  <line
     class="va"
     x1="0.0"
     y1="375.0"
     x2="62.5"
     y2="375.0"
     id="line5141" />
  <line
     class="mo"
     x1="62.5"
     y1="562.5"
     x2="187.5"
     y2="562.5"
     id="line5143" />
  <line
     class="mo"
     x1="187.5"
     y1="687.5"
     x2="250.0"
     y2="625.0"
     id="line5145" />
  <line
     class="fl"


   x1="375.0"
     y1="562.5"
     x2="437.5"
     y2="562.5"
     id="line5147"
     style="stroke:#ffff00;stroke-opacity:1" />
  <line
     class="bo"
     x1="562.5"
     y1="0.0"
     x2="625.0"
     y2="0.0"
     id="line5149" />
  <line
     class="va"
     x1="500.0"
     y1="625.0"
     x2="562.5"
     y2="625.0"
     id="line5151" />
  <line
     class="fl"


   x1="687.5"
     y1="62.5"
     x2="750.0"
     y2="62.5"
     id="line5153"
     style="stroke:#ffff00;stroke-opacity:1" />
  <line
     class="mo"
     x1="937.5"
     y1="187.5"
     x2="1000.0"
     y2="187.5"
     id="line5155" />
  <line
     class="bo"
     x1="0.0"
     y1="62.5"
     x2="0.0"
     y2="125.0"
     id="line5157" />
  <line
     class="bo"
     x1="0.0"
     y1="500.0"
     x2="0.0"
     y2="562.5"
     id="line5159" />
  <line
     class="va"
     x1="250.0"
     y1="625.0"
     x2="250.0"
     y2="687.5"
     id="line5161" />
  <line
     class="mo"
     x1="312.5"
     y1="0.0"
     x2="312.5"
     y2="62.5"
     id="line5163" />
  <line
     class="fl"


   x1="750.0"
     y1="312.5"
     x2="812.5"
     y2="312.5"
     id="line5165"
     style="stroke:#ffff00;stroke-opacity:1" />
  <line
     class="fl"


   x1="687.5"
     y1="937.5"
     x2="750.0"
     y2="937.5"
     id="line5167"
     style="stroke:#ffff00;stroke-opacity:1" />
  <line
     class="bo"
     x1="812.5"
     y1="1000.0"
     x2="875.0"
     y2="1000.0"
     id="line5169" />
  <line
     class="mo"
     x1="187.5"
     y1="812.5"
     x2="187.5"
     y2="937.5"
     id="line5171" />
  <line
     class="va"
     x1="250.0"
     y1="625.0"
     x2="312.5"
     y2="562.5"
     id="line5173" />
  <line
     class="mo"
     x1="187.5"
     y1="687.5"
     x2="187.5"
     y2="812.5"
     id="line5175" />
  <line
     class="bo"
     x1="125.0"
     y1="0.0"
     x2="187.5"
     y2="0.0"
     id="line5177" />
  <line
     class="va"
     x1="500.0"
     y1="187.5"
     x2="500.0"
     y2="312.5"
     id="line5179" />
  <line
     class="mo"
     x1="437.5"
     y1="812.5"
     x2="437.5"
     y2="937.5"
     id="line5181" />
  <line
     class="fl"


   x1="187.5"
     y1="687.5"
     x2="250.0"
     y2="687.5"
     id="line5183"
     style="stroke:#ffff00;stroke-opacity:1" />
  <line
     class="fl"


   x1="250.0"
     y1="62.5"
     x2="312.5"
     y2="62.5"
     id="line5185"
     style="stroke:#ffff00;stroke-opacity:1" />
  <line
     class="fl"


   x1="500.0"
     y1="187.5"
     x2="562.5"
     y2="187.5"
     id="line5187"
     style="stroke:#ffff00;stroke-opacity:1" />
  <line
     class="fl"


   x1="437.5"
     y1="812.5"
     x2="500.0"
     y2="812.5"
     id="line5189"
     style="stroke:#ffff00;stroke-opacity:1" />
  <line
     class="va"
     x1="937.5"
     y1="187.5"
     x2="1000.0"
     y2="125.0"
     id="line5191" />
  <line
     class="va"
     x1="750.0"
     y1="875.0"
     x2="750.0"
     y2="937.5"
     id="line5193" />
  <line
     class="fl"


   x1="937.5"
     y1="312.5"
     x2="937.5"
     y2="375.0"
     id="line5195"
     style="stroke:#ffff00;stroke-opacity:1" />
  <line
     class="va"
     x1="437.5"
     y1="562.5"
     x2="500.0"
     y2="625.0"
     id="line5197" />
  <line
     class="mo"
     x1="0.0"
     y1="187.5"
     x2="62.5"
     y2="187.5"
     id="line5199" />
  <line
     class="fl"


   x1="187.5"
     y1="937.5"
     x2="250.0"
     y2="937.5"
     id="line5201"
     style="stroke:#ffff00;stroke-opacity:1" />
  <line
     class="bo"
     x1="312.5"
     y1="1000.0"
     x2="375.0"
     y2="1000.0"
     id="line5203" />
  <line
     class="mo"
     x1="812.5"
     y1="0.0"
     x2="812.5"
     y2="62.5"
     id="line5205" />
  <line
     class="bo"
     x1="1000.0"
     y1="750.0"
     x2="1000.0"
     y2="812.5"
     id="line5207" />
  <line
     class="va"
     x1="500.0"
     y1="625.0"
     x2="500.0"
     y2="687.5"
     id="line5209" />
  <line
     class="mo"
     x1="562.5"
     y1="0.0"
     x2="562.5"
     y2="62.5"
     id="line5211" />
  <line
     class="bo"
     x1="1000.0"
     y1="875.0"
     x2="1000.0"
     y2="937.5"
     id="line5213" />
  <line
     class="fl"


   x1="937.5"
     y1="187.5"
     x2="937.5"
     y2="250.0"
     id="line5215"
     style="stroke:#ffff00;stroke-opacity:1" />
  <line
     class="va"
     x1="687.5"
     y1="812.5"
     x2="750.0"
     y2="875.0"
     id="line5217" />
  <line
     class="va"
     x1="62.5"
     y1="750.0"
     x2="125.0"
     y2="750.0"
     id="line5219" />
  <line
     class="mo"
     x1="0.0"
     y1="62.5"
     x2="62.5"
     y2="62.5"
     id="line5221" />
  <line
     class="bo"
     x1="0.0"
     y1="375.0"
     x2="0.0"
     y2="437.5"
     id="line5223" />
  <line
     class="fl"


   x1="187.5"
     y1="812.5"
     x2="250.0"
     y2="812.5"
     id="line5225"
     style="stroke:#ffff00;stroke-opacity:1" />
  <line
     class="fl"


   x1="437.5"
     y1="937.5"
     x2="500.0"
     y2="937.5"
     id="line5227"
     style="stroke:#ffff00;stroke-opacity:1" />
  <line
     class="bo"
     x1="562.5"
     y1="1000.0"
     x2="625.0"
     y2="1000.0"
     id="line5229" />
  <line
     class="fl"


   x1="500.0"
     y1="312.5"
     x2="562.5"
     y2="312.5"
     id="line5231"
     style="stroke:#ffff00;stroke-opacity:1" />
  <line
     class="bo"
     x1="0.0"
     y1="1000.0"
     x2="62.5"
     y2="1000.0"
     id="line5233" />
  <line
     class="mo"
     x1="437.5"
     y1="562.5"
     x2="437.5"
     y2="687.5"
     id="line5235" />
  <line
     class="va"
     x1="312.5"
     y1="500.0"
     x2="375.0"
     y2="500.0"
     id="line5237" />
  <line
     class="va"
     x1="750.0"
     y1="62.5"
     x2="750.0"
     y2="187.5"
     id="line5239" />
  <line
     class="bo"
     x1="625.0"
     y1="0.0"
     x2="687.5"
     y2="0.0"
     id="line5241" />
  <line
     class="fl"


   x1="312.5"
     y1="250.0"
     x2="312.5"
     y2="312.5"
     id="line5243"
     style="stroke:#ffff00;stroke-opacity:1" />
  <line
     class="va"
     x1="375.0"
     y1="937.5"
     x2="375.0"
     y2="1000.0"
     id="line5245" />
  <line
     class="fl"


   x1="437.5"
     y1="312.5"
     x2="437.5"
     y2="375.0"
     id="line5247"
     style="stroke:#ffff00;stroke-opacity:1" />
  <line
     class="fl"


   x1="687.5"
     y1="437.5"
     x2="687.5"
     y2="500.0"
     id="line5249"
     style="stroke:#ffff00;stroke-opacity:1" />
  <line
     class="va"
     x1="125.0"
     y1="0.0"
     x2="187.5"
     y2="62.5"
     id="line5251" />
  <line
     class="fl"


   x1="812.5"
     y1="500.0"
     x2="812.5"
     y2="562.5"
     id="line5253"
     style="stroke:#ffff00;stroke-opacity:1" />
  <line
     class="fl"


   x1="937.5"
     y1="562.5"
     x2="937.5"
     y2="625.0"
     id="line5255"
     style="stroke:#ffff00;stroke-opacity:1" />
  <line
     class="bo"
     x1="875.0"
     y1="0.0"
     x2="937.5"
     y2="0.0"
     id="line5257" />
  <line
     class="fl"


   x1="312.5"
     y1="375.0"
     x2="312.5"
     y2="437.5"
     id="line5259"
     style="stroke:#ffff00;stroke-opacity:1" />
  <line
     class="mo"
     x1="937.5"
     y1="687.5"
     x2="1000.0"
     y2="687.5"
     id="line5261" />
  <line
     class="fl"


   x1="687.5"
     y1="562.5"
     x2="687.5"
     y2="625.0"
     id="line5263"
     style="stroke:#ffff00;stroke-opacity:1" />
  <line
     class="fl"


   x1="812.5"
     y1="625.0"
     x2="812.5"
     y2="687.5"
     id="line5265"
     style="stroke:#ffff00;stroke-opacity:1" />
  <line
     class="fl"


   x1="937.5"
     y1="687.5"
     x2="937.5"
     y2="750.0"
     id="line5267"
     style="stroke:#ffff00;stroke-opacity:1" />
  <line
     class="va"
     x1="875.0"
     y1="0.0"
     x2="875.0"
     y2="62.5"
     id="line5269" />
  <line
     class="bo"
     x1="1000.0"
     y1="62.5"
     x2="1000.0"
     y2="125.0"
     id="line5271" />
  <line
     class="mo"
     x1="62.5"
     y1="62.5"
     x2="187.5"
     y2="62.5"
     id="line5273" />
  <line
     class="fl"


   x1="125.0"
     y1="937.5"
     x2="187.5"
     y2="937.5"
     id="line5275"
     style="stroke:#ffff00;stroke-opacity:1" />
  <line
     class="bo"
     x1="250.0"
     y1="1000.0"
     x2="312.5"
     y2="1000.0"
     id="line5277" />
  <line
     class="va"
     x1="687.5"
     y1="437.5"
     x2="750.0"
     y2="375.0"
     id="line5279" />
  <line
     class="fl"


   x1="62.5"
     y1="250.0"
     x2="62.5"
     y2="312.5"
     id="line5281"
     style="stroke:#ffff00;stroke-opacity:1" />
  <line
     class="bo"
     x1="0.0"
     y1="875.0"
     x2="0.0"
     y2="937.5"
     id="line5283" />
  <line
     class="mo"
     x1="812.5"
     y1="437.5"
     x2="937.5"
     y2="437.5"
     id="line5285" />
  <line
     class="fl"


   x1="187.5"
     y1="312.5"
     x2="187.5"
     y2="375.0"
     id="line5287"
     style="stroke:#ffff00;stroke-opacity:1" />
  <line
     class="va"
     x1="125.0"
     y1="937.5"
     x2="125.0"
     y2="1000.0"
     id="line5289" />
  <line
     class="fl"


   x1="750.0"
     y1="187.5"
     x2="812.5"
     y2="187.5"
     id="line5291"
     style="stroke:#ffff00;stroke-opacity:1" />
  <line
     class="va"
     x1="875.0"
     y1="250.0"
     x2="937.5"
     y2="250.0"
     id="line5293" />
  <line
     class="mo"
     x1="937.5"
     y1="937.5"
     x2="1000.0"
     y2="937.5"
     id="line5295" />
  <line
     class="va"
     x1="625.0"
     y1="937.5"
     x2="625.0"
     y2="1000.0"
     id="line5297" />
  <line
     class="fl"


   x1="812.5"
     y1="375.0"
     x2="812.5"
     y2="437.5"
     id="line5299"
     style="stroke:#ffff00;stroke-opacity:1" />
  <line
     class="fl"


   x1="937.5"
     y1="437.5"
     x2="937.5"
     y2="500.0"
     id="line5301"
     style="stroke:#ffff00;stroke-opacity:1" />
  <line
     class="va"
     x1="375.0"
     y1="250.0"
     x2="437.5"
     y2="312.5"
     id="line5303" />
  <line
     class="mo"
     x1="812.5"
     y1="312.5"
     x2="937.5"
     y2="312.5"
     id="line5305" />
  <line
     class="bo"
     x1="375.0"
     y1="0.0"
     x2="437.5"
     y2="0.0"
     id="line5307" />
  <line
     class="bo"
     x1="0.0"
     y1="625.0"
     x2="0.0"
     y2="687.5"
     id="line5309" />
  <line
     class="fl"


   x1="62.5"
     y1="0.0"
     x2="62.5"
     y2="62.5"
     id="line5311"
     style="stroke:#ffff00;stroke-opacity:1" />
  <line
     class="fl"


   x1="187.5"
     y1="62.5"
     x2="187.5"
     y2="125.0"
     id="line5313"
     style="stroke:#ffff00;stroke-opacity:1" />
  <line
     class="fl"


   x1="437.5"
     y1="687.5"
     x2="500.0"
     y2="687.5"
     id="line5315"
     style="stroke:#ffff00;stroke-opacity:1" />
  <line
     class="fl"


   x1="500.0"
     y1="62.5"
     x2="562.5"
     y2="62.5"
     id="line5317"
     style="stroke:#ffff00;stroke-opacity:1" />
  <line
     class="bo"
     x1="0.0"
     y1="750.0"
     x2="0.0"
     y2="812.5"
     id="line5319" />
  <line
     class="fl"


   x1="62.5"
     y1="125.0"
     x2="62.5"
     y2="187.5"
     id="line5321"
     style="stroke:#ffff00;stroke-opacity:1" />
  <line
     class="fl"


   x1="187.5"
     y1="187.5"
     x2="187.5"
     y2="250.0"
     id="line5323"
     style="stroke:#ffff00;stroke-opacity:1" />
  <line
     class="fl"


   x1="750.0"
     y1="62.5"
     x2="812.5"
     y2="62.5"
     id="line5325"
     style="stroke:#ffff00;stroke-opacity:1" />
  <line
     class="mo"
     x1="937.5"
     y1="812.5"
     x2="1000.0"
     y2="812.5"
     id="line5327" />
  <line
     class="mo"
     x1="437.5"
     y1="687.5"
     x2="437.5"
     y2="812.5"
     id="line5329" />
  <line
     class="va"
     x1="500.0"
     y1="62.5"
     x2="500.0"
     y2="187.5"
     id="line5331" />
  <line
     class="va"
     x1="750.0"
     y1="187.5"
     x2="750.0"
     y2="312.5"
     id="line5333" />
  <line
     class="mo"
     x1="687.5"
     y1="812.5"
     x2="687.5"
     y2="937.5"
     id="line5335" />
</svg>
